<?xml version="1.0" encoding="utf-8"?>
<!-- Generator: Adobe Illustrator 25.2.0, SVG Export Plug-In . SVG Version: 6.00 Build 0)  -->
<svg version="1.1" id="Layer_1" focusable="false" xmlns="http://www.w3.org/2000/svg" xmlns:xlink="http://www.w3.org/1999/xlink"
	 x="0px" y="0px" viewBox="0 0 80 80" style="enable-background:new 0 0 80 80;" xml:space="preserve">
<path d="M71,40.5C71,57.9,56.9,72,39.5,72S8,57.9,8,40.5S22.1,9,39.5,9S71,23.1,71,40.5z M35.86,57.18l23.37-23.37
	c0.79-0.79,0.79-2.08,0-2.87l-2.87-2.87c-0.79-0.79-2.08-0.79-2.87,0L34.42,47.12l-8.9-8.9c-0.79-0.79-2.08-0.79-2.87,0l-2.87,2.87
	c-0.79,0.79-0.79,2.08,0,2.87l13.21,13.21C33.78,57.97,35.06,57.97,35.86,57.18L35.86,57.18z"/>
</svg>
