<?xml version="1.0" encoding="utf-8"?>
<!-- Generator: Adobe Illustrator 25.2.0, SVG Export Plug-In . SVG Version: 6.00 Build 0)  -->
<svg version="1.1" id="Layer_1" xmlns="http://www.w3.org/2000/svg" xmlns:xlink="http://www.w3.org/1999/xlink" x="0px" y="0px"
	 viewBox="0 0 72 72" style="enable-background:new 0 0 72 72;" xml:space="preserve">
<style type="text/css">
	.st0{stroke:#000000;stroke-miterlimit:10;}
	.st1{stroke:#FFFFFF;stroke-miterlimit:10;}
</style>
<g>
	<g>
		<path class="st0" d="M39.08,43.11c-4.1,2.24-8.21,3.95-12.08,5.1l4.68,8.54c3.87-1.16,7.98-2.86,12.08-5.1L39.08,43.11z"/>
		<path class="st0" d="M51.77,34.04l4.68,8.54c2.39-2.26,4.33-4.56,5.73-6.79l-4.68-8.54C56.1,29.48,54.16,31.78,51.77,34.04z"/>
		<path class="st0" d="M29.44,57.37l-4.68-8.54c-3.09,0.77-5.98,1.17-8.54,1.18l4.68,8.54C23.47,58.54,26.36,58.14,29.44,57.37z"/>
		<path class="st0" d="M13.58,49.87c-3.45-0.4-6.06-1.67-7.36-3.84l-0.01,0.01l4.68,8.54l0.01,0c1.3,2.17,3.91,3.44,7.36,3.84
			L13.58,49.87z"/>
		<path class="st0" d="M58.79,24.91l4.68,8.54c1.4-3.01,1.69-5.77,0.6-7.97l0.01-0.01l-4.68-8.54l-0.01,0.01
			C60.48,19.13,60.2,21.9,58.79,24.91z"/>
		<path class="st0" d="M50.04,35.6c-2.6,2.24-5.63,4.41-8.99,6.39l4.68,8.54c3.36-1.98,6.39-4.15,8.99-6.39L50.04,35.6z"/>
	</g>
	
		<ellipse transform="matrix(0.8772 -0.4801 0.4801 0.8772 -11.0029 19.5345)" class="st1" cx="32.69" cy="31.28" rx="30.32" ry="13.45"/>
</g>
</svg>
