<?xml version="1.0" encoding="utf-8"?>
<!-- Generator: Adobe Illustrator 25.2.1, SVG Export Plug-In . SVG Version: 6.00 Build 0)  -->
<svg version="1.1" id="Layer_1" xmlns="http://www.w3.org/2000/svg" xmlns:xlink="http://www.w3.org/1999/xlink" x="0px" y="0px"
	 viewBox="0 0 72 53.9" style="enable-background:new 0 0 72 53.9;" xml:space="preserve">
<style type="text/css">
	.st0{fill:#040404;}
</style>
<g>
	<path class="st0" d="M11.8,32.3c-1.3-0.1-2.6-0.2-3.9-0.4c-1.3-0.2-2.4-0.8-3.2-1.8c-0.8-1-1.5-2-2.2-3.1c-1.2-2-0.6-3.3,1.8-3.6
		c2.5-0.3,5-0.4,7.4-0.7c0.1,0,0.2,0,0.4,0c0-2,0-3.9,0-5.9c0-4.1-0.1-8.3-0.1-12.4c0-0.3,0-0.6,0.1-0.9c0.3-1.4,1.1-2,2.4-1.4
		c1.4,0.6,2.8,1.3,4.1,2.1c1.5,0.9,1.9,2.5,1.9,4.1c0,4.3,0,8.5-0.1,12.8c0,0.3,0,0.6,0,1c1.8-0.1,3.6-0.2,5.4-0.4
		c0-1.8,0-3.5,0-5.3c0-3.5-0.1-7-0.2-10.5c0-0.8,0-1.5,0.1-2.3c0.1-1.5,1-2.2,2.4-1.7c1.4,0.6,2.8,1.3,4.2,2.1
		c1.3,0.8,1.8,2.2,1.9,3.6c0.2,2.7,0.2,5.5,0.2,8.2c0,1.6,0,3.3,0,5c1.6-0.1,3.3-0.3,5.2-0.5c0-0.2,0-0.5,0-0.7
		c0-5.1-0.1-10.2-0.1-15.4c0-0.6,0.2-1.2,0.4-1.8c0.2-0.6,0.8-0.9,1.4-0.8c2.1,0.5,4,1.4,5.6,3C47.7,5.9,48,7.1,48,8.3
		c0.1,3.5,0.1,7.1,0.1,10.6c0,0.3,0,0.7,0,1.1c1.8-0.2,3.5-0.3,5.3-0.5c0-2.1,0-4.1,0-6.1c0-3.1,0-6.2-0.1-9.2c0-0.2,0-0.4,0-0.6
		c0.3-1.4,1.1-1.9,2.4-1.4c1.4,0.6,2.8,1.3,4.1,2.1c1.3,0.8,1.7,2.2,1.8,3.6c0.2,2.7,0.2,5.5,0.2,8.2c0,1,0,1.9,0,2.9
		c1.2,0.1,2.5,0.1,3.8,0.3c1.5,0.2,2.9,0.7,4.3,1c0.1,0,0.2,0.1,0.2,0.1c0.6,0.3,1.2,0.5,1.2,1.3c0,0.7-0.5,1.1-1,1.5
		c-1.2,0.9-2.7,1.1-4.1,1.4c-1.6,0.4-3.2,0.8-4.9,1.2c-0.1,1.6-0.2,3.2-0.4,4.8c-0.4,3.6-0.8,7.2-1.4,10.7c-0.5,2.8-1.3,5.6-2,8.3
		c-0.2,0.6-0.6,1.2-1,1.6c-0.5,0.5-0.9,0.5-1.4,0c-0.4-0.5-0.8-1.1-1-1.7c-0.4-1.7-0.9-3.4-1-5.1c-0.1-4.3-0.1-8.6-0.1-12.9
		c0-1.4,0-2.7,0-4.2c-1.9,0.3-3.8,0.7-5.6,1c-0.2,2.3-0.5,4.5-0.7,6.7c-0.6,5.1-1.4,10.1-3,14.9c-0.1,0.5-0.5,0.9-0.8,1.2
		c-0.6,0.7-1.2,0.7-1.7-0.1c-0.5-0.7-0.9-1.6-1-2.4c-0.4-2.2-0.8-4.4-0.9-6.6c-0.1-3.9,0-7.9,0.1-11.8c0-0.2,0-0.4,0-0.7
		c-1.9,0.3-3.9,0.5-5.8,0.8c-0.1,1.4-0.3,2.8-0.4,4.2c-0.6,5.2-1.4,10.3-3,15.3c-0.2,0.6-0.6,1.1-1,1.5c-0.5,0.6-1,0.6-1.5,0
		c-0.4-0.6-0.8-1.3-1-1.9c-1-3-1.1-6.2-1.2-9.3c0-2.9,0-5.9,0-8.9c-1.8,0.2-3.8,0.4-5.8,0.6c-0.1,1-0.2,2.1-0.4,3.1
		c-0.6,5.1-1.4,10.1-3,15c-0.2,0.6-0.6,1.1-1,1.6c-0.5,0.5-1,0.5-1.4,0c-0.5-0.8-1-1.7-1.3-2.6c-0.8-2.8-1-5.6-0.9-8.5
		C11.8,37.6,11.8,35,11.8,32.3z"/>
</g>
</svg>
