<?xml version="1.0" encoding="utf-8"?>
<!-- Generator: Adobe Illustrator 25.2.0, SVG Export Plug-In . SVG Version: 6.00 Build 0)  -->
<svg version="1.1" id="Layer_1" xmlns="http://www.w3.org/2000/svg" xmlns:xlink="http://www.w3.org/1999/xlink" x="0px" y="0px"
	 viewBox="0 0 72 72" style="enable-background:new 0 0 72 72;" xml:space="preserve">
<path d="M70.13,11.52L70.13,11.52c-1.48-2.16-4.44-2.72-6.6-1.24l-4.64,3.18V6.04c0-2.62-2.13-4.75-4.75-4.75
	c-2.62,0-4.75,2.13-4.75,4.75v13.91l-8.34,5.71V6.04c0-2.62-2.13-4.75-4.75-4.75s-4.75,2.13-4.75,4.75v26.12l-9.12,6.24V6.04
	c0-2.62-2.13-4.75-4.75-4.75s-4.75,2.13-4.75,4.75V44.9L2.92,51.76c-2.16,1.48-2.72,4.44-1.24,6.6c1.48,2.16,4.44,2.72,6.6,1.24
	l4.66-3.19v10.32c0,2.62,2.13,4.75,4.75,4.75s4.75-2.13,4.75-4.75V49.91l9.12-6.24v23.06c0,2.62,2.13,4.75,4.75,4.75
	s4.75-2.13,4.75-4.75V37.17l8.34-5.71v35.27c0,2.62,2.13,4.75,4.75,4.75c2.62,0,4.75-2.13,4.75-4.75V24.96l10-6.85
	C71.06,16.64,71.61,13.68,70.13,11.52z"/>
</svg>
