<?xml version="1.0" encoding="utf-8"?>
<!-- Generator: Adobe Illustrator 25.2.0, SVG Export Plug-In . SVG Version: 6.00 Build 0)  -->
<svg version="1.1" id="Layer_1" focusable="false" xmlns="http://www.w3.org/2000/svg" xmlns:xlink="http://www.w3.org/1999/xlink"
	 x="0px" y="0px" viewBox="0 0 127.64 157.19" style="enable-background:new 0 0 127.64 157.19;" xml:space="preserve">
<g>
	<path d="M68.17,84.43c-1.49,0.36-3.05,0.58-4.65,0.58c-10.82,0-19.59-8.76-19.59-19.58c0-0.47,0.04-0.92,0.07-1.38L21.25,44.86
		c-3.03,6.21-4.73,13.19-4.73,20.56c0,18.95,6.6,24.24,42.17,75.8c2.33,3.37,7.32,3.37,9.66,0c10.73-15.55,18.82-26.89,24.89-35.66
		L68.17,84.43z"/>
	<path d="M53.48,48.63c2.94-1.76,6.37-2.79,10.04-2.79c10.81,0,19.58,8.78,19.58,19.59c0,2.49-0.48,4.86-1.33,7.05l21.36,18.01
		c5.8-9.77,7.39-15.78,7.39-25.07c0-25.96-21.04-47-47-47c-12.12,0-23.16,4.59-31.49,12.11L53.48,48.63z"/>
</g>
<path d="M125.72,119.89l-1.49,1.76c-1.29,1.53-3.59,1.73-5.12,0.44L6.71,27.31c-1.53-1.29-1.73-3.59-0.44-5.12l1.49-1.76
	c1.29-1.53,3.59-1.73,5.12-0.44l112.4,94.78C126.82,116.06,127.01,118.35,125.72,119.89z"/>
</svg>
