<?xml version="1.0" encoding="utf-8"?>
<!-- Generator: Adobe Illustrator 25.2.0, SVG Export Plug-In . SVG Version: 6.00 Build 0)  -->
<svg version="1.1" id="Layer_1" xmlns="http://www.w3.org/2000/svg" xmlns:xlink="http://www.w3.org/1999/xlink" x="0px" y="0px"
	 viewBox="0 0 72 72" style="enable-background:new 0 0 72 72;" xml:space="preserve">
<g>
	<path d="M22.39,56.91h-1.62l-1.62-0.01c-0.38,0-0.65-0.02-0.8-0.07c-0.28-0.1-0.42-0.3-0.42-0.62c0-0.55,0.43-0.82,1.28-0.82
		l0.39,0.01l0.33,0.02c0-0.26-0.02-0.65-0.07-1.16c-0.05-0.51-0.07-0.89-0.07-1.15c0-0.69,0.06-1.74,0.19-3.15
		c0.12-1.39,0.18-2.44,0.17-3.16c-0.73,0.57-1.19,0.85-1.4,0.85c-0.22,0-0.41-0.08-0.57-0.24c-0.16-0.16-0.24-0.35-0.24-0.56
		c0-0.25,0.23-0.57,0.7-0.93c0.29-0.21,0.71-0.54,1.25-1c0.48-0.48,0.94-0.73,1.37-0.73c0.36,0,0.55,0.21,0.55,0.63
		c0,0.12-0.02,0.31-0.05,0.56c-0.03,0.25-0.05,0.43-0.05,0.56c0,0.18,0.01,0.45,0.03,0.82c0.02,0.37,0.03,0.64,0.03,0.82
		c0,0.62-0.07,1.54-0.2,2.77c-0.13,1.23-0.2,2.15-0.2,2.77c0,0.32,0.02,0.7,0.07,1.15c0.04,0.45,0.07,0.82,0.07,1.11l0.86-0.02
		c0.23,0,0.42,0.07,0.57,0.22c0.15,0.15,0.22,0.34,0.22,0.56c0,0.23-0.07,0.42-0.22,0.56S22.62,56.91,22.39,56.91z"/>
</g>
<g>
	<path d="M40.46,39.12c-0.13,0-0.33-0.04-0.57-0.13c-0.25-0.08-0.44-0.13-0.57-0.13c-0.28,0-0.69,0.02-1.25,0.05
		c-0.55,0.03-0.97,0.05-1.26,0.05c-0.21,0-0.53,0.03-0.94,0.08c-0.42,0.05-0.73,0.08-0.94,0.08c-0.06,0-0.15-0.01-0.26-0.03
		c-0.11-0.02-0.2-0.03-0.26-0.03c-0.38,0-0.62-0.18-0.73-0.55c-0.07-0.19-0.1-0.52-0.1-0.98c0-1.27,0.35-2.29,1.04-3.06
		c0.32-0.35,1.17-1.01,2.55-1.96c0.78-0.53,1.3-0.95,1.56-1.25c0.47-0.52,0.7-1.13,0.7-1.83c0-0.35-0.23-0.66-0.68-0.93
		c-0.4-0.24-0.79-0.37-1.17-0.37c-0.5,0-0.98,0.14-1.43,0.43l-1.17,0.91c-0.23,0.18-0.42,0.28-0.56,0.28
		c-0.56,0-0.84-0.22-0.84-0.67c0-0.26,0.1-0.48,0.31-0.66c0.64-0.6,1.19-1.03,1.66-1.3c0.66-0.38,1.34-0.56,2.03-0.56
		c0.88,0,1.67,0.24,2.36,0.72c0.77,0.54,1.16,1.23,1.16,2.07c0,0.55-0.08,1.07-0.24,1.53s-0.4,0.89-0.72,1.28
		c-0.41,0.49-1.1,1.04-2.07,1.64c-1.02,0.64-1.7,1.13-2.02,1.46c-0.6,0.62-0.9,1.38-0.89,2.28l1.68-0.16
		c1.15-0.06,1.98-0.1,2.47-0.1c0.41,0,0.8,0.07,1.17,0.21c0.49,0.19,0.73,0.45,0.73,0.79c0,0.21-0.07,0.4-0.22,0.57
		S40.68,39.12,40.46,39.12z"/>
</g>
<g>
	<path d="M51.27,22.83c-0.82,0-1.56-0.17-2.21-0.51c-0.73-0.4-1.23-0.95-1.48-1.67c-0.03-0.1-0.05-0.19-0.05-0.29
		c0-0.22,0.08-0.4,0.25-0.54s0.36-0.22,0.58-0.22s0.41,0.1,0.56,0.3l0.38,0.56c0.2,0.27,0.46,0.47,0.79,0.6
		c0.33,0.13,0.73,0.2,1.19,0.2c0.59,0,1.11-0.18,1.56-0.55c0.47-0.39,0.71-0.87,0.71-1.44c0-0.82-0.3-1.48-0.91-1.97
		c-0.53-0.42-1.24-0.68-2.12-0.77c-0.6-0.06-0.91-0.3-0.91-0.73c0-0.32,0.24-0.57,0.71-0.73l1.95-0.48
		c0.38-0.14,0.66-0.32,0.85-0.55c0.19-0.23,0.29-0.51,0.29-0.84c0.01-0.48-0.17-0.86-0.55-1.16c-0.4-0.3-0.95-0.46-1.67-0.46
		c-0.37,0-0.73,0.09-1.08,0.27l-0.92,0.58c-0.18,0.11-0.32,0.17-0.43,0.17c-0.22,0-0.4-0.08-0.56-0.25s-0.23-0.35-0.23-0.57
		c0-0.43,0.42-0.84,1.25-1.24c0.72-0.35,1.32-0.53,1.79-0.53c1.17,0,2.1,0.26,2.78,0.77c0.73,0.55,1.1,1.35,1.1,2.37
		c0,1.28-0.52,2.12-1.55,2.53c-0.09,0.04-0.2,0.08-0.32,0.11c0.72,0.27,1.26,0.67,1.62,1.19c0.36,0.53,0.54,1.19,0.54,1.99
		c0,1.07-0.38,1.98-1.13,2.73C53.28,22.46,52.36,22.83,51.27,22.83z"/>
</g>
</svg>
