<?xml version="1.0" encoding="utf-8"?>
<!-- Generator: Adobe Illustrator 25.2.0, SVG Export Plug-In . SVG Version: 6.00 Build 0)  -->
<svg version="1.1" id="Layer_1" focusable="false" xmlns="http://www.w3.org/2000/svg" xmlns:xlink="http://www.w3.org/1999/xlink"
	 x="0px" y="0px" viewBox="0 0 32.15 64.29" style="enable-background:new 0 0 32.15 64.29;" xml:space="preserve">
<path d="M23.14,48.87c0,4.26-3.45,7.71-7.71,7.71s-7.71-3.45-7.71-7.71c0-2.85,1.55-5.34,3.86-6.68V21.87
	c0-2.13,1.73-3.86,3.86-3.86s3.86,1.73,3.86,3.86v20.32C21.59,43.52,23.14,46.01,23.14,48.87z M27,38.66
	c2.4,2.72,3.86,6.29,3.86,10.2c0,8.52-6.91,15.43-15.43,15.43c-0.04,0-0.07,0-0.11,0C6.84,64.23-0.04,57.26,0,48.79
	c0.02-3.88,1.47-7.42,3.86-10.12V14.16c0-6.39,5.18-11.57,11.57-11.57S27,7.77,27,14.16V38.66z M25.07,48.87
	c0-4.14-2.33-6.29-3.86-8.01v-26.7c0-3.19-2.6-5.78-5.78-5.78s-5.78,2.6-5.78,5.78v26.7c-1.53,1.74-3.84,3.87-3.86,7.96
	c-0.03,5.29,4.29,9.66,9.57,9.69l0.07,0C20.74,58.51,25.07,54.18,25.07,48.87z"/>
</svg>
