<?xml version="1.0" encoding="utf-8"?>
<!-- Generator: Adobe Illustrator 25.2.0, SVG Export Plug-In . SVG Version: 6.00 Build 0)  -->
<svg version="1.1" id="Layer_1" focusable="false" xmlns="http://www.w3.org/2000/svg" xmlns:xlink="http://www.w3.org/1999/xlink"
	 x="0px" y="0px" viewBox="0 0 177 177" style="enable-background:new 0 0 177 177;" xml:space="preserve">
<path d="M85.5,14C42.69,14,8,48.69,8,91.5S42.69,169,85.5,169S163,134.31,163,91.5S128.31,14,85.5,14z M123.5,111.84
	c1.47,1.47,1.47,3.84,0,5.31l-12.38,12.34c-1.47,1.47-3.84,1.47-5.31,0L85.5,109l-20.34,20.5c-1.47,1.47-3.84,1.47-5.31,0
	L47.5,117.12c-1.47-1.47-1.47-3.84,0-5.31L68,91.5L47.5,71.16c-1.47-1.47-1.47-3.84,0-5.31l12.38-12.38c1.47-1.47,3.84-1.47,5.31,0
	L85.5,74l20.34-20.5c1.47-1.47,3.84-1.47,5.31,0l12.38,12.38c1.47,1.47,1.47,3.84,0,5.31L103,91.5L123.5,111.84z"/>
</svg>
